<svg id="Capa_4" data-name="Capa 4" xmlns="http://www.w3.org/2000/svg" viewBox="0 0 555.03 170.08"><defs><style>.cls-1{fill:#12290e;}.cls-2{fill:#4d8b2f;}.cls-3{fill:#ffa615;}.cls-4{fill:#80cdbb;}</style></defs><title>logotipoWeb</title><path class="cls-1" d="M179,71.58c-.07-2.06-.16-4.13-.29-6.21.55.06,1.14.12,1.77.17s1.36.07,2.16.07,1.52,0,2.16-.07,1.23-.11,1.77-.17q-.19,3.12-.28,6.21c-.07,2.06-.1,4.41-.1,7.07v6.52c0,1.82,0,3.57,0,5.27s0,3.16.08,4.41q2.73,0,5.46-.15c1.82-.09,3.66-.25,5.51-.47-.06.35-.11.67-.14,1s0,.69,0,1.2,0,.91,0,1.2a3.67,3.67,0,0,0,.14.72c-.86,0-1.92-.06-3.19-.07s-3,0-5.2,0H181.3c-.72,0-1.27,0-1.63,0s-.68,0-.94.07c.13-2,.22-4,.29-6.06s.09-4.42.09-7.07V78.65C179.11,76,179.08,73.64,179,71.58Z" transform="translate(-22.98 -5.67)"/><path class="cls-1" d="M200.49,81.91a16.73,16.73,0,0,1,10.84-15.82,20.33,20.33,0,0,1,7.57-1.34,23.43,23.43,0,0,1,7.14,1A16.39,16.39,0,0,1,231.79,69a14.71,14.71,0,0,1,3.86,5.35,18.76,18.76,0,0,1,1.42,7.55A16.67,16.67,0,0,1,231.91,94a17.09,17.09,0,0,1-5.77,3.62,20.45,20.45,0,0,1-7.39,1.29,26.33,26.33,0,0,1-7.11-.93,15.3,15.3,0,0,1-5.8-3,14.54,14.54,0,0,1-3.91-5.32A19,19,0,0,1,200.49,81.91Zm28.71-1.06a18.83,18.83,0,0,0-.76-5.58,13.07,13.07,0,0,0-2.13-4.2A9.55,9.55,0,0,0,223,68.41a9.72,9.72,0,0,0-4.25-.93,8.32,8.32,0,0,0-4.38,1.17,10.39,10.39,0,0,0-3.28,3.19,15.12,15.12,0,0,0-2,4.72,22.89,22.89,0,0,0-.7,5.78,22.25,22.25,0,0,0,.82,6.47,11.68,11.68,0,0,0,2.2,4.24,8.24,8.24,0,0,0,3.22,2.33,10.51,10.51,0,0,0,3.83.72,9.64,9.64,0,0,0,4.12-.92A9.24,9.24,0,0,0,226,92.4a14.59,14.59,0,0,0,2.35-4.74A23.31,23.31,0,0,0,229.2,80.85Z" transform="translate(-22.98 -5.67)"/><path class="cls-1" d="M245.69,87.56c-.25,3.58-.51,7.16-.76,10.74a6.46,6.46,0,0,0-1.15-.1h-2.23a6.24,6.24,0,0,0-1.13.1q1.53-8.25,2.73-16.39t2.21-16.54l1,.17a6,6,0,0,0,1,.07,5.84,5.84,0,0,0,.91-.07l1-.17q1.29,2.88,2.71,5.85t2.83,5.92c.94,2,1.88,3.89,2.82,5.77s1.85,3.68,2.71,5.37Q263.19,82.91,266,77t5.44-11.67a10.78,10.78,0,0,0,2.06.24,10.49,10.49,0,0,0,2-.24c.32,2.75.67,5.7,1,8.87s.72,6.25,1.07,9.27.71,5.84,1.06,8.46.67,4.73,1,6.33a17.87,17.87,0,0,0-1.94-.1h-3.91a19.32,19.32,0,0,0-2,.1c-.16-3.29-.43-6.85-.79-10.69S270.28,80,269.9,76.2h-.1l-5.37,11.12c-1.75,3.65-3.5,7.3-5.22,11a4,4,0,0,0-.46-.07,3.19,3.19,0,0,0-.45,0,3.44,3.44,0,0,0-.46,0,4.14,4.14,0,0,0-.45.07q-2.59-5.37-5.15-10.74t-5.3-10.88h-.1Q246.08,82.2,245.69,87.56Z" transform="translate(-22.98 -5.67)"/><path class="cls-1" d="M312.65,98.3c-.76-.07-1.49-.1-2.18-.1H306.4a19.63,19.63,0,0,0-2,.1c-.51-1.57-1-3.16-1.58-4.79s-1.12-3.26-1.73-4.89c-1,0-2-.06-3.06-.07l-3.07,0q-1.25,0-2.49,0c-.84,0-1.67,0-2.5.07q-1,2.44-1.77,4.89c-.54,1.63-1,3.22-1.49,4.79a6.21,6.21,0,0,0-1.12-.1h-2.28a8.16,8.16,0,0,0-1.25.1c.39-.83.9-2,1.54-3.45s1.34-3.13,2.11-5,1.59-3.84,2.47-6,1.75-4.28,2.63-6.45,1.74-4.31,2.59-6.42,1.62-4.08,2.32-5.9l.92.17a5.25,5.25,0,0,0,.91.07,5.33,5.33,0,0,0,.91-.07l.91-.17q1.53,4.08,3.28,8.72T306.13,83c1.19,3,2.34,5.82,3.46,8.5S311.73,96.45,312.65,98.3Zm-17-23.92c-.82,1.92-1.61,3.81-2.34,5.68s-1.46,3.78-2.16,5.73H300c-.7-2-1.4-3.86-2.08-5.73S296.45,76.3,295.68,74.38Z" transform="translate(-22.98 -5.67)"/><path class="cls-1" d="M325.93,67.72A5.05,5.05,0,0,0,322.34,69a4.19,4.19,0,0,0-.32,5.92,11.72,11.72,0,0,0,2.71,2c1.09.61,2.26,1.19,3.5,1.75a18.59,18.59,0,0,1,3.5,2.06,10.82,10.82,0,0,1,2.71,3,8.42,8.42,0,0,1,1.08,4.48,10.55,10.55,0,0,1-.91,4.39A9.6,9.6,0,0,1,332,96a11.42,11.42,0,0,1-4,2.16,17,17,0,0,1-5.21.74,17.63,17.63,0,0,1-4.62-.55A8.78,8.78,0,0,1,315.1,97c.32-1.11.59-2.14.81-3.06s.42-1.93.58-3h.91a6.51,6.51,0,0,0,.72,2,6.43,6.43,0,0,0,1.34,1.65,5.9,5.9,0,0,0,2,1.13,7.78,7.78,0,0,0,2.59.41,5.59,5.59,0,0,0,4.24-1.44,4.8,4.8,0,0,0,1.37-3.45,4.25,4.25,0,0,0-1.05-3,10.67,10.67,0,0,0-2.64-2c-1.05-.59-2.2-1.17-3.45-1.73a17.42,17.42,0,0,1-3.45-2,10.2,10.2,0,0,1-2.64-2.94A8.62,8.62,0,0,1,315.34,75a10.2,10.2,0,0,1,.89-4.4,9.53,9.53,0,0,1,2.37-3.22,10.35,10.35,0,0,1,3.42-2,12.41,12.41,0,0,1,4.1-.67,15,15,0,0,1,4.53.62A10.29,10.29,0,0,1,334,67.1c-.28.73-.53,1.44-.74,2.13l-.79,2.61h-.72A5.74,5.74,0,0,0,325.93,67.72Z" transform="translate(-22.98 -5.67)"/><path class="cls-1" d="M354.88,78.65c0-2.66,0-5-.09-7.07s-.16-4.13-.29-6.21c.54.06,1.13.12,1.77.17s1.36.07,2.16.07c1.05,0,2.23,0,3.55-.12s3-.12,5.12-.12a35.47,35.47,0,0,1,7.51.74,15.55,15.55,0,0,1,5.82,2.52,11.53,11.53,0,0,1,3.78,4.77A18.41,18.41,0,0,1,385.56,81a18.76,18.76,0,0,1-1.32,7.19,16.57,16.57,0,0,1-3.6,5.49,15.4,15.4,0,0,1-5.27,3.47,17.06,17.06,0,0,1-6.4,1.2c-2.39,0-4.44,0-6.13,0s-3.17,0-4.41,0h-2.16a13.86,13.86,0,0,0-1.77.1c.13-2,.22-4,.29-6.06s.09-4.42.09-7.07Zm7.1,10v2.87c0,.93,0,1.77,0,2.54s0,1.26,0,1.49l1.73.09c.67,0,1.5,0,2.49,0A10.72,10.72,0,0,0,374.82,92Q378,88.33,378,80.85a16.57,16.57,0,0,0-.8-5.32,11.6,11.6,0,0,0-2.23-4A9.56,9.56,0,0,0,371.51,69a11.05,11.05,0,0,0-4.5-.89c-1.15,0-2.09,0-2.81.07l-2.18.17c0,.23,0,.72,0,1.49s0,1.63,0,2.59V88.67Z" transform="translate(-22.98 -5.67)"/><path class="cls-1" d="M391.64,71.58c-.06-2.06-.16-4.13-.28-6.21,1.44,0,2.86.08,4.26.14s2.83.1,4.27.1q3.54,0,6.3-.07c1.84-.05,3.08-.11,3.72-.17a8.37,8.37,0,0,0-.2,2,11.92,11.92,0,0,0,.05,1.2q0,.44.15,1l-3.05-.19-3.21-.19c-1-.07-2-.11-2.8-.15L399.07,69c-.12,1.76-.2,3.5-.21,5.23s0,3.47,0,5.22c2.08,0,4-.08,5.64-.14s3.42-.14,5.24-.24c-.09.54-.16,1-.19,1.25a8.71,8.71,0,0,0,0,.91,4.37,4.37,0,0,0,.07.79c0,.27.1.66.16,1.17-3.64-.28-7.27-.43-10.88-.43,0,1,0,2,0,3.07s0,2,0,3.07c0,2.07,0,4.07.14,6q2.73,0,5.46-.15c1.82-.09,3.66-.25,5.52-.47-.07.35-.12.67-.15,1s-.05.69-.05,1.2,0,.91.05,1.2a3,3,0,0,0,.15.72c-.87,0-1.93-.06-3.19-.07s-3,0-5.2,0h-7.6c-.72,0-1.26,0-1.63,0s-.68,0-.93.07c.12-2,.22-4,.28-6.06s.1-4.42.1-7.07V78.65C391.74,76,391.71,73.64,391.64,71.58Z" transform="translate(-22.98 -5.67)"/><path class="cls-1" d="M429.37,71.58c-.07-2.06-.16-4.13-.29-6.21.54.06,1.13.12,1.77.17s1.36.07,2.16.07,1.52,0,2.16-.07,1.23-.11,1.77-.17q-.19,3.12-.29,6.21c-.06,2.06-.09,4.41-.09,7.07v6.52c0,1.82,0,3.57,0,5.27s0,3.16.07,4.41c1.82,0,3.65,0,5.47-.15s3.65-.25,5.51-.47c-.07.35-.11.67-.15,1s0,.69,0,1.2,0,.91,0,1.2a3.6,3.6,0,0,0,.15.72c-.86,0-1.93-.06-3.19-.07s-3,0-5.2,0h-7.6c-.72,0-1.26,0-1.63,0s-.68,0-.93.07c.13-2,.22-4,.29-6.06s.09-4.42.09-7.07V78.65C429.46,76,429.43,73.64,429.37,71.58Z" transform="translate(-22.98 -5.67)"/><path class="cls-1" d="M480.46,98.3c-.77-.07-1.49-.1-2.18-.1h-4.07a19.63,19.63,0,0,0-2,.1c-.51-1.57-1-3.16-1.58-4.79s-1.12-3.26-1.73-4.89c-1,0-2-.06-3.06-.07l-3.07,0c-.83,0-1.67,0-2.5,0s-1.66,0-2.49.07q-1,2.44-1.77,4.89c-.54,1.63-1,3.22-1.49,4.79a6.21,6.21,0,0,0-1.12-.1h-2.28a8.16,8.16,0,0,0-1.25.1c.39-.83.9-2,1.54-3.45s1.34-3.13,2.11-5,1.59-3.84,2.46-6,1.76-4.28,2.64-6.45,1.74-4.31,2.59-6.42,1.62-4.08,2.32-5.9l.91.17a6,6,0,0,0,1.83,0l.91-.17q1.53,4.08,3.28,8.72T473.94,83c1.18,3,2.34,5.82,3.45,8.5S479.53,96.45,480.46,98.3Zm-17-23.92q-1.25,2.88-2.35,5.68T459,85.79h8.77q-1-2.92-2.09-5.73T463.49,74.38Z" transform="translate(-22.98 -5.67)"/><path class="cls-1" d="M498.29,78.65c0-2.66,0-5-.09-7.07s-.16-4.13-.29-6.21c.54.06,1.13.12,1.77.17s1.36.07,2.16.07c1.12,0,2.28,0,3.47-.12s2.38-.12,3.53-.12a22.33,22.33,0,0,1,5.32.5,7.55,7.55,0,0,1,3,1.47,7.91,7.91,0,0,1,2.25,2.78,8.61,8.61,0,0,1,.72,3.69,11.18,11.18,0,0,1-.91,4.69,8,8,0,0,1-2.57,3.19,11.11,11.11,0,0,1-3.9,1.8,20.18,20.18,0,0,1-4.94.57h-2.45q0,3.6.08,7.17t.31,7.07a14.13,14.13,0,0,0-1.78-.1h-4.31a13.86,13.86,0,0,0-1.77.1c.13-2,.22-4,.29-6.06s.09-4.42.09-7.07Zm14.29-4.08a10.1,10.1,0,0,0-.41-3.07,5.08,5.08,0,0,0-1.11-2,4,4,0,0,0-1.62-1.08,5.88,5.88,0,0,0-1.95-.34h-1.58a1.88,1.88,0,0,0-.43.05c0,2.3-.06,4.56-.07,6.78s0,4.45,0,6.69a13.24,13.24,0,0,0,2.47-.24,6,6,0,0,0,2.33-1,5.4,5.4,0,0,0,1.72-2.14A8.47,8.47,0,0,0,512.58,74.57Z" transform="translate(-22.98 -5.67)"/><path class="cls-1" d="M549.77,98.3c-.77-.07-1.49-.1-2.18-.1h-4.07a19.63,19.63,0,0,0-2,.1c-.51-1.57-1-3.16-1.58-4.79s-1.12-3.26-1.73-4.89c-1,0-2-.06-3.07-.07s-2,0-3.06,0c-.83,0-1.67,0-2.5,0s-1.66,0-2.49.07q-1,2.44-1.77,4.89c-.55,1.63-1,3.22-1.49,4.79a6.21,6.21,0,0,0-1.12-.1h-2.28a8.16,8.16,0,0,0-1.25.1c.39-.83.9-2,1.54-3.45s1.34-3.13,2.1-5l2.47-6q1.32-3.2,2.64-6.45T530.48,71c.84-2.11,1.62-4.08,2.32-5.9l.91.17a5.41,5.41,0,0,0,.91.07,5.25,5.25,0,0,0,.91-.07l.92-.17q1.53,4.08,3.28,8.72T543.25,83c1.18,3,2.33,5.82,3.45,8.5S548.84,96.45,549.77,98.3Zm-17-23.92q-1.24,2.88-2.35,5.68t-2.15,5.73h8.77c-.71-2-1.4-3.86-2.09-5.73S533.57,76.3,532.8,74.38Z" transform="translate(-22.98 -5.67)"/><path class="cls-1" d="M555,91.45c1.43-2.31,2.91-4.72,4.41-7.24s3-5.08,4.48-7.67,2.88-5.08,4.19-7.48l0-.1q-3.74,0-7.57.05c-2.55,0-5,.16-7.43.39.07-.35.12-.69.17-1a6.58,6.58,0,0,0,.07-1,6.45,6.45,0,0,0-.07-1c0-.32-.1-.66-.17-1,1.47,0,2.77,0,3.91,0l3.21.07,3,.07c1,0,2,0,3.14,0l2.76,0,2.61,0,2.88-.07c1,0,2.2-.07,3.54-.1v.86q-4.5,7.2-8.63,14.24t-8.19,14.28v.1q3.74,0,6.33,0c1.72,0,3.22,0,4.5-.07s2.37-.07,3.29-.12,1.79-.1,2.65-.17a7.69,7.69,0,0,1-.14,1,5.5,5.5,0,0,0-.09,1,5,5,0,0,0,.09,1,7.35,7.35,0,0,1,.14.84c-2-.07-4-.1-5.82-.1H566c-3.87,0-7.09,0-9.68,0s-4.35,0-5.27.07v-.67Q552.79,94.9,555,91.45Z" transform="translate(-22.98 -5.67)"/><path class="cls-2" d="M272.73,130.11a8.22,8.22,0,0,0-.28,1.5,15.85,15.85,0,0,1-7.21,1.45,16.39,16.39,0,0,1-5.49-.86,11.66,11.66,0,0,1-4.11-2.44,10.63,10.63,0,0,1-2.56-3.73,12.35,12.35,0,0,1-.88-4.66,15.15,15.15,0,0,1,1.15-6.24,11.45,11.45,0,0,1,3.07-4.17,12.44,12.44,0,0,1,4.47-2.35,19.19,19.19,0,0,1,5.34-.74,14.89,14.89,0,0,1,1.94.14c.68.09,1.34.22,2,.37a18.48,18.48,0,0,1,1.82.55,9.34,9.34,0,0,1,1.47.67,10.73,10.73,0,0,0-.55,1.78,14.17,14.17,0,0,0-.27,1.83h-.49a8.7,8.7,0,0,0-2.76-2.43,7.22,7.22,0,0,0-3.32-.72,6.84,6.84,0,0,0-2.84.64,7.57,7.57,0,0,0-2.6,1.94,9.84,9.84,0,0,0-1.89,3.34,14.56,14.56,0,0,0-.72,4.86,12.79,12.79,0,0,0,.74,4.64,9,9,0,0,0,1.92,3.15,7.27,7.27,0,0,0,2.69,1.78,8.46,8.46,0,0,0,3,.57,8,8,0,0,0,1.73-.2,10.47,10.47,0,0,0,1.73-.53,8.75,8.75,0,0,0,1.61-.83,7.24,7.24,0,0,0,1.33-1.09l.45.28C273,129.11,272.87,129.61,272.73,130.11Z" transform="translate(-22.98 -5.67)"/><path class="cls-2" d="M296,132.6c-.57,0-1.11-.07-1.61-.07h-3c-.5,0-1,0-1.5.07-.38-1.15-.76-2.33-1.16-3.53s-.83-2.4-1.28-3.6c-.75,0-1.5,0-2.26-.06h-4.1q-.92,0-1.83.06c-.48,1.2-.91,2.4-1.31,3.6s-.77,2.38-1.1,3.53a5.93,5.93,0,0,0-.83-.07h-1.68a7.7,7.7,0,0,0-.91.07c.28-.61.66-1.46,1.13-2.54s1-2.31,1.55-3.67,1.17-2.84,1.82-4.4,1.3-3.15,1.95-4.76l1.9-4.73q.94-2.34,1.72-4.35l.67.13a4.68,4.68,0,0,0,.67,0,4.8,4.8,0,0,0,.67,0l.67-.13c.76,2,1.56,4.15,2.42,6.43s1.73,4.53,2.6,6.73,1.72,4.3,2.54,6.28S295.33,131.24,296,132.6ZM283.51,115c-.62,1.42-1.19,2.81-1.73,4.19s-1.08,2.79-1.6,4.22h6.47c-.52-1.43-1-2.84-1.54-4.22S284.07,116.39,283.51,115Z" transform="translate(-22.98 -5.67)"/><path class="cls-2" d="M301.63,124.69c-.19,2.64-.37,5.28-.56,7.91a6.22,6.22,0,0,0-.85-.07h-1.64a5.93,5.93,0,0,0-.83.07q1.13-6.07,2-12.08t1.62-12.19l.73.12a4.11,4.11,0,0,0,.72.06,3.88,3.88,0,0,0,.67-.06l.75-.12c.63,1.41,1.3,2.85,2,4.31s1.39,2.91,2.09,4.36,1.39,2.87,2.08,4.26,1.36,2.71,2,4q2.11-4,4.22-8.29t4-8.6a7.83,7.83,0,0,0,1.52.18,7.73,7.73,0,0,0,1.49-.18c.23,2,.48,4.2.76,6.54s.53,4.61.79,6.83.52,4.31.78,6.24.49,3.49.71,4.66c-.48,0-.95-.07-1.44-.07h-2.88c-.49,0-1,0-1.48.07-.12-2.42-.31-5-.58-7.87s-.55-5.64-.83-8.41h-.07c-1.35,2.77-2.67,5.51-4,8.19s-2.58,5.39-3.85,8.09l-.34,0-.33,0-.34,0-.34,0q-1.9-3.94-3.79-7.91c-1.26-2.64-2.57-5.31-3.91-8h-.07Q301.91,120.73,301.63,124.69Z" transform="translate(-22.98 -5.67)"/><path class="cls-2" d="M330.75,118.12c0-2,0-3.69-.07-5.22s-.12-3-.21-4.57c.4,0,.83.09,1.3.12s1,.06,1.59.06c.83,0,1.68,0,2.57-.09s1.74-.09,2.59-.09a16,16,0,0,1,3.92.37,5.47,5.47,0,0,1,2.23,1.08,5.79,5.79,0,0,1,1.66,2,6.4,6.4,0,0,1,.53,2.72,8.12,8.12,0,0,1-.67,3.46,6,6,0,0,1-1.89,2.35,8.11,8.11,0,0,1-2.88,1.32,14.36,14.36,0,0,1-3.64.43H336c0,1.77,0,3.53,0,5.28s.11,3.49.23,5.21c-.4,0-.84-.07-1.31-.07h-3.18a12.92,12.92,0,0,0-1.3.07q.13-2.19.21-4.47c0-1.51.07-3.25.07-5.21Zm10.53-3a7.36,7.36,0,0,0-.3-2.26,4,4,0,0,0-.82-1.47,3.1,3.1,0,0,0-1.2-.79,4.3,4.3,0,0,0-1.43-.25h-1.16a1.47,1.47,0,0,0-.32,0c0,1.69,0,3.36-.06,5s0,3.28,0,4.93a9.67,9.67,0,0,0,1.82-.18,4.46,4.46,0,0,0,1.71-.72,4,4,0,0,0,1.27-1.58A6.29,6.29,0,0,0,341.28,115.11Z" transform="translate(-22.98 -5.67)"/><path class="cls-2" d="M348.8,120.52a12.44,12.44,0,0,1,1-4.91,12.24,12.24,0,0,1,2.73-4,12.79,12.79,0,0,1,4.28-2.72,15.06,15.06,0,0,1,5.58-1,17.22,17.22,0,0,1,5.27.78,11.91,11.91,0,0,1,4.24,2.33,10.83,10.83,0,0,1,2.84,3.94,13.86,13.86,0,0,1,1,5.56,12.2,12.2,0,0,1-1,5,12.55,12.55,0,0,1-2.8,4,12.69,12.69,0,0,1-4.25,2.67,15,15,0,0,1-5.45.95,19.29,19.29,0,0,1-5.24-.69,11.35,11.35,0,0,1-4.28-2.22,10.87,10.87,0,0,1-2.88-3.92A14.16,14.16,0,0,1,348.8,120.52Zm21.17-.78a13.7,13.7,0,0,0-.57-4.11,9.32,9.32,0,0,0-1.57-3.1,6.92,6.92,0,0,0-2.44-2,7.08,7.08,0,0,0-3.13-.69,6.11,6.11,0,0,0-3.23.87,7.74,7.74,0,0,0-2.42,2.35,11.24,11.24,0,0,0-1.5,3.48,17.15,17.15,0,0,0-.51,4.26,16.4,16.4,0,0,0,.6,4.77,8.7,8.7,0,0,0,1.62,3.13,6.3,6.3,0,0,0,2.37,1.71A7.73,7.73,0,0,0,362,131a7.28,7.28,0,0,0,3-.67,6.83,6.83,0,0,0,2.52-2.05,10.91,10.91,0,0,0,1.74-3.5A17.33,17.33,0,0,0,370,119.74Z" transform="translate(-22.98 -5.67)"/><path class="cls-2" d="M386.29,110.06a3.78,3.78,0,0,0-2.65,1,3.1,3.1,0,0,0-.23,4.37,8.64,8.64,0,0,0,2,1.5q1.2.68,2.58,1.29a13.35,13.35,0,0,1,2.58,1.52,7.71,7.71,0,0,1,2,2.19,6.11,6.11,0,0,1,.8,3.3,7.67,7.67,0,0,1-.67,3.24,7.2,7.2,0,0,1-1.91,2.5,8.56,8.56,0,0,1-2.95,1.6,12.7,12.7,0,0,1-3.83.54,13.08,13.08,0,0,1-3.41-.4,6.5,6.5,0,0,1-2.28-1c.23-.83.43-1.58.6-2.26s.3-1.43.42-2.23H380a4.69,4.69,0,0,0,1.52,2.69,4.47,4.47,0,0,0,1.45.83,5.71,5.71,0,0,0,1.91.3,4.13,4.13,0,0,0,3.13-1.06,3.58,3.58,0,0,0,1-2.55,3.12,3.12,0,0,0-.77-2.19,8,8,0,0,0-1.95-1.5c-.77-.43-1.62-.86-2.54-1.27a12.94,12.94,0,0,1-2.55-1.5,7.68,7.68,0,0,1-1.94-2.18,6.27,6.27,0,0,1-.78-3.3,7.61,7.61,0,0,1,.66-3.25,7,7,0,0,1,1.75-2.37,7.67,7.67,0,0,1,2.52-1.44,9.2,9.2,0,0,1,3-.5,10.78,10.78,0,0,1,3.34.46,7.73,7.73,0,0,1,2.46,1.27c-.21.54-.4,1.07-.55,1.57s-.35,1.15-.58,1.93h-.53A4.23,4.23,0,0,0,386.29,110.06Z" transform="translate(-22.98 -5.67)"/><path class="cls-2" d="M417.74,132.6c-.56,0-1.1-.07-1.61-.07h-3c-.51,0-1,0-1.5.07l-1.17-3.53c-.4-1.2-.82-2.4-1.27-3.6-.75,0-1.51,0-2.26-.06h-4.1l-1.84.06c-.47,1.2-.9,2.4-1.31,3.6s-.76,2.38-1.09,3.53a5.93,5.93,0,0,0-.83-.07h-1.68a7.85,7.85,0,0,0-.92.07c.29-.61.66-1.46,1.13-2.54s1-2.31,1.56-3.67,1.17-2.84,1.82-4.4,1.29-3.15,1.94-4.76,1.28-3.18,1.91-4.73,1.19-3,1.71-4.35l.67.13a4.58,4.58,0,0,0,1.35,0l.67-.13,2.42,6.43q1.29,3.44,2.59,6.73c.88,2.21,1.72,4.3,2.55,6.28S417.06,131.24,417.74,132.6ZM405.23,115c-.61,1.42-1.19,2.81-1.73,4.19s-1.07,2.79-1.59,4.22h6.47c-.52-1.43-1-2.84-1.54-4.22S405.8,116.39,405.23,115Z" transform="translate(-22.98 -5.67)"/><path class="cls-2" d="M421.7,115.36c0-1.63,0-3-.07-4.1s-.09-2.08-.11-2.93a7.11,7.11,0,0,0,3.18,0q3.85,4.28,7.62,8.41t7.72,8.41v-6.5c0-1.16,0-2.29,0-3.41s0-2.15,0-3.09,0-1.76-.07-2.44a10.06,10.06,0,0,0-.12-1.38,7.11,7.11,0,0,0,3.18,0q-.18,3.21-.28,5.81c-.07,1.73-.13,3.36-.18,4.9s-.08,3-.09,4.53,0,3.1,0,4.79v4.24c-.47,0-.95-.07-1.44-.07a13.78,13.78,0,0,0-1.38.07q-7.29-8.47-15.44-17.06c0,.68,0,1.36-.06,2s0,1.37,0,2.08v4.1c0,1.41,0,2.62,0,3.6s0,1.83.06,2.51,0,1.25.07,1.68,0,.79.07,1a6.22,6.22,0,0,0-.85-.07h-.81c-.54,0-1.09,0-1.63.07a17.76,17.76,0,0,0,.18-2c.07-1.15.14-2.56.23-4.22s.15-3.47.21-5.41S421.7,117.15,421.7,115.36Z" transform="translate(-22.98 -5.67)"/><path class="cls-2" d="M453,112.22a8,8,0,0,0-.09-1.24l-1.3,0-1.66.09-1.81.14c-.61.06-1.18.13-1.69.2,0-.26.09-.52.12-.78a5.11,5.11,0,0,0,.05-.78,5,5,0,0,0-.05-.77c0-.26-.08-.52-.12-.78l2.17.07,2,0,2.19,0,2.84,0,2.85,0,2.17,0,1.93,0,2-.07q-.08.39-.12.78a5,5,0,0,0-.06.77,5.12,5.12,0,0,0,.06.78q0,.39.12.78c-.47-.07-1-.14-1.59-.2l-1.75-.14-1.64-.09-1.31,0a4.16,4.16,0,0,0,0,.49c0,.22,0,.46,0,.75v10.7c0,2,0,3.7.07,5.21s.12,3,.21,4.47c-.4,0-.84-.07-1.31-.07h-3.18a12.92,12.92,0,0,0-1.3.07q.14-2.19.21-4.47c0-1.51.07-3.25.07-5.21v-8.83C453,113.41,453,112.78,453,112.22Z" transform="translate(-22.98 -5.67)"/><path class="cls-2" d="M465.3,120.52a12.43,12.43,0,0,1,1-4.91,12.26,12.26,0,0,1,2.74-4,12.7,12.7,0,0,1,4.28-2.72,15.06,15.06,0,0,1,5.58-1,17.15,17.15,0,0,1,5.26.78,11.74,11.74,0,0,1,4.24,2.33,11,11,0,0,1,2.85,3.94,13.86,13.86,0,0,1,1,5.56,12.21,12.21,0,0,1-1,5,12.37,12.37,0,0,1-2.79,4,12.73,12.73,0,0,1-4.26,2.67,14.91,14.91,0,0,1-5.44.95,19.24,19.24,0,0,1-5.24-.69,11.27,11.27,0,0,1-4.28-2.22,10.87,10.87,0,0,1-2.88-3.92A14,14,0,0,1,465.3,120.52Zm21.17-.78a13.7,13.7,0,0,0-.57-4.11,9.51,9.51,0,0,0-1.57-3.1,7,7,0,0,0-2.44-2,7.14,7.14,0,0,0-3.13-.69,6.08,6.08,0,0,0-3.23.87,7.74,7.74,0,0,0-2.42,2.35,11.24,11.24,0,0,0-1.5,3.48,17.14,17.14,0,0,0-.52,4.26,16.4,16.4,0,0,0,.6,4.77,8.87,8.87,0,0,0,1.63,3.13,6.15,6.15,0,0,0,2.37,1.71,7.69,7.69,0,0,0,2.83.53,7.2,7.2,0,0,0,3-.67,6.86,6.86,0,0,0,2.53-2.05,10.9,10.9,0,0,0,1.73-3.5A17,17,0,0,0,486.47,119.74Z" transform="translate(-22.98 -5.67)"/><path class="cls-3" d="M82.27,23c-.85.08-1.69.17-2.53.27l-.23,0A64.55,64.55,0,0,0,67,26.15l-.19.07c-.78.26-1.55.54-2.32.84h0a63.84,63.84,0,0,0-9.09,4.36l-.13.07c-.7.41-1.39.83-2.08,1.26a.41.41,0,0,1-.11.07,66.16,66.16,0,0,0-8,6h0A22.07,22.07,0,0,0,82.27,23Z" transform="translate(-22.98 -5.67)"/><path class="cls-4" d="M60.17,50.73A27.93,27.93,0,0,1,40.81,43,65.27,65.27,0,0,0,32,54.62l1.8,13q2.12-.12,4.26-.12A76.38,76.38,0,0,1,76.78,78a76.82,76.82,0,0,1,50.33-42c-.58-.45-1.18-.88-1.78-1.31l-.42-.3c-.58-.4-1.17-.8-1.76-1.18l-.49-.32c-.61-.38-1.22-.77-1.85-1.13-.08-.06-.17-.1-.26-.16a67.74,67.74,0,0,0-6.29-3.23l-.47-.21c-.62-.27-1.24-.53-1.87-.78l-.75-.29c-.61-.24-1.22-.47-1.84-.68l-.79-.27-1.91-.62-.34-.09c-1.37-.41-2.76-.77-4.16-1.08l-.7-.16c-.6-.13-1.2-.24-1.8-.35l-1.09-.2-1.75-.26c-.39-.06-.79-.1-1.18-.15-.58-.07-1.16-.14-1.75-.19-.39,0-.79-.06-1.19-.09-1.48-.11-3-.18-4.49-.19A28,28,0,0,1,60.17,50.73Z" transform="translate(-22.98 -5.67)"/><path class="cls-2" d="M38.06,73.41c-1.16,0-2.31,0-3.45.08l6,43.64A94,94,0,0,1,88.18,104.3c2.91,0,5.78.14,8.61.39A70.69,70.69,0,0,0,38.06,73.41Z" transform="translate(-22.98 -5.67)"/><path class="cls-1" d="M135.51,123.94a88.37,88.37,0,0,0-94-.44l1.52,11c.72.7,1.47,1.38,2.23,2h0q1.14,1,2.31,1.92l0,0c.78.61,1.56,1.2,2.37,1.78l.08.06c.78.57,1.58,1.11,2.39,1.64l.16.1c.79.52,1.59,1,2.4,1.49l.25.14c.79.46,1.58.9,2.39,1.33l.36.18c.77.41,1.56.8,2.35,1.17l.49.22c.76.35,1.53.69,2.3,1l.63.25c.74.29,1.48.58,2.23.85l.79.27c.71.24,1.42.48,2.14.7.32.1.65.18,1,.27.67.2,1.35.39,2,.56.38.1.77.18,1.15.27.64.15,1.27.3,1.92.43.45.09.9.16,1.36.24s1.17.22,1.76.31,1.07.13,1.61.2l1.57.2c.66.06,1.33.1,2,.15.42,0,.83.07,1.25.09,1.09.05,2.18.08,3.29.08s2.25,0,3.37-.08l.93-.07c.8-.06,1.61-.11,2.4-.19l1-.13c.76-.09,1.52-.18,2.27-.3l1-.17c.77-.13,1.53-.26,2.29-.41l.85-.2c.78-.17,1.57-.35,2.34-.55l.73-.21c.81-.22,1.61-.45,2.4-.7l.61-.2c.83-.27,1.65-.55,2.47-.86.16,0,.31-.12.47-.18.85-.33,1.7-.66,2.53-1l.36-.16c.87-.38,1.72-.78,2.57-1.19l.25-.13c.88-.44,1.75-.89,2.6-1.37l.16-.08c.88-.5,1.75-1,2.61-1.54l.08-.05c.88-.55,1.74-1.12,2.6-1.71v0a64.76,64.76,0,0,0,9.67-8.19Z" transform="translate(-22.98 -5.67)"/><path class="cls-2" d="M132.71,40.76A70.89,70.89,0,0,0,81.78,81.22a77,77,0,0,1,22.58,24.46,93.9,93.9,0,0,1,32,11.81l7.84-62.07h0A65.58,65.58,0,0,0,139,47.67h0A66.06,66.06,0,0,0,132.71,40.76Z" transform="translate(-22.98 -5.67)"/><path class="cls-4" d="M87.85,16.82a70.65,70.65,0,0,1,57.47,29.5l5.14-40.65H25.24l5.54,40.08A70.68,70.68,0,0,1,87.85,16.82Z" transform="translate(-22.98 -5.67)"/><path class="cls-1" d="M44.27,143.33l3,21.74L129,175.75l4.29-33.88a70.72,70.72,0,0,1-89,1.46Z" transform="translate(-22.98 -5.67)"/><path class="cls-2" d="M148.65,65l-7,58.8a64.9,64.9,0,0,0,7-58.8Z" transform="translate(-22.98 -5.67)"/><path class="cls-2" d="M23,87.59A64.62,64.62,0,0,0,35.59,126l-8-62.39A64.61,64.61,0,0,0,23,87.59Z" transform="translate(-22.98 -5.67)"/><path class="cls-1" d="M45.07,114.62h.19a94.67,94.67,0,0,1,12.64-5.35l-5.74-23Z" transform="translate(-22.98 -5.67)"/><path class="cls-1" d="M63.83,107.48q3.69-1,7.49-1.67L67.79,91.66Z" transform="translate(-22.98 -5.67)"/><path class="cls-1" d="M116.25,108.56a93.46,93.46,0,0,1,12.85,5.06l-7-28.22Z" transform="translate(-22.98 -5.67)"/></svg>